{"title":"Comedy Nights with Kapil - Rajat Sharma - 12th April 480p HQ MP4","uid":9979830,"size":496443068,"categoryP":"video","categoryS":"other","magnet":"?xt=urn:btih:822595211eda655739abe97a2f29767e0b1e03bc&amp;dn=Comedy+Nights+with+Kapil+-+Rajat+Sharma+-+12th+April+480p+HQ+MP4&amp;tr=udp%3A%2F%2Ftracker.openbittorrent.com%3A80&amp;tr=udp%3A%2F%2Fopen.demonii.com%3A1337&amp;tr=udp%3A%2F%2Ftracker.coppersurfer.tk%3A6969&amp;tr=udp%3A%2F%2Fexodus.desync.com%3A6969","seeders":1,"leechers":1,"uploader":"lazypirate..","files":1,"time":1397726060,"description":" &lt;a href=&quot;http://s10.postimg.org/tbjb82k9l/dsmrhvtyqg.png&quot; rel=&quot;nofollow&quot; target=&quot;_NEW&quot;&gt;http://s10.postimg.org/tbjb82k9l/dsmrhvtyqg.png&lt;/a&gt;\n\nGeneral\nComplete name : Comedy Nights with Kapil - Rajat Sharma - 12th April 480p HQ==DOM==.mp4\nFormat : MPEG-4\nFormat profile : Base Media\nCodec ID : isom\nFile size : 473 MiB\nDuration : 1h 2mn\nOverall bit rate : 1 067 Kbps\nWriting application : Lavf54.63.104\n\nVideo\nID : 1\nFormat : AVC\nFormat/Info : Advanced Video Codec\nFormat profile : &lt;a class=&quot;__cf_email__&quot; href=&quot;/cdn-cgi/l/email-protection&quot; data-cfemail=&quot;397458505779750a1709&quot;&gt;[email&amp;#160;protected]&lt;/a&gt;&lt;script cf-hash='f9e31' type=&quot;text/javascript&quot;&gt;\n/* &lt;![CDATA[ */!function(){try{var t=&quot;currentScript&quot;in document?document.currentScript:function(){for(var t=document.getElementsByTagName(&quot;script&quot;),e=t.length;e--;)if(t[e].getAttribute(&quot;cf-hash&quot;))return t[e]}();if(t&amp;&amp;t.previousSibling){var e,r,n,i,c=t.previousSibling,a=c.getAttribute(&quot;data-cfemail&quot;);if(a){for(e=&quot;&quot;,r=parseInt(a.substr(0,2),16),n=2;a.length-n;n+=2)i=parseInt(a.substr(n,2),16)^r,e+=String.fromCharCode(i);e=document.createTextNode(e),c.parentNode.replaceChild(e,c)}}}catch(u){}}();/* ]]&gt; */&lt;/script&gt;\nFormat settings, CABAC : Yes\nFormat settings, ReFrames : 3 frames\nCodec ID : avc1\nCodec ID/Info : Advanced Video Coding\nDuration : 1h 2mn\nBit rate : 935 Kbps\nWidth : 854 pixels\nHeight : 480 pixels\nDisplay aspect ratio : 16:9\nFrame rate mode : Constant\nFrame rate : 25.000 fps\nColor space : YUV\nChroma subsampling : 4:2:0\nBit depth : 8 bits\nScan type : Progressive\nBits/(Pixel*Frame) : 0.091\nStream size : 415 MiB (88%)\n\nAudio\nID : 2\nFormat : AAC\nFormat/Info : Advanced Audio Codec\nFormat profile : LC\nCodec ID : 40\nDuration : 1h 2mn\nBit rate mode : Constant\nBit rate : 126 Kbps\nChannel(s) : 2 channels\nChannel positions : Front: L R\nSampling rate : 44.1 KHz\nCompression mode : Lossy\nStream size : 55.7 MiB (12%)\n &lt;a href=&quot;\nhttp://s16.postimg.org/wxmjyig51/vlcsnap_2014_04_16_00h38m00s215.png&quot; rel=&quot;nofollow&quot; target=&quot;_NEW&quot;&gt;\nhttp://s16.postimg.org/wxmjyig51/vlcsnap_2014_04_16_00h38m00s215.png&lt;/a&gt; &lt;a href=&quot;\nhttp://s16.postimg.org/40gmj3qk5/vlcsnap_2014_04_16_00h38m12s90.png&quot; rel=&quot;nofollow&quot; target=&quot;_NEW&quot;&gt;\nhttp://s16.postimg.org/40gmj3qk5/vlcsnap_2014_04_16_00h38m12s90.png&lt;/a&gt; &lt;a href=&quot;\nhttp://s16.postimg.org/an3aca88l/vlcsnap_2014_04_16_00h38m37s77.png&quot; rel=&quot;nofollow&quot; target=&quot;_NEW&quot;&gt;\nhttp://s16.postimg.org/an3aca88l/vlcsnap_2014_04_16_00h38m37s77.png&lt;/a&gt; &lt;a href=&quot;\nhttp://s16.postimg.org/5qznkl839/vlcsnap_2014_04_16_00h39m14s193.png&quot; rel=&quot;nofollow&quot; target=&quot;_NEW&quot;&gt;\nhttp://s16.postimg.org/5qznkl839/vlcsnap_2014_04_16_00h39m14s193.png&lt;/a&gt; &lt;a href=&quot;\nhttp://s16.postimg.org/mxrnim4vp/vlcsnap_2014_04_16_00h41m54s255.png&quot; rel=&quot;nofollow&quot; target=&quot;_NEW&quot;&gt;\nhttp://s16.postimg.org/mxrnim4vp/vlcsnap_2014_04_16_00h41m54s255.png&lt;/a&gt;","torrent":{"xt":"urn:btih:822595211eda655739abe97a2f29767e0b1e03bc","amp;dn":"Comedy+Nights+with+Kapil+-+Rajat+Sharma+-+12th+April+480p+HQ+MP4","amp;tr":["udp%3A%2F%2Ftracker.openbittorrent.com%3A80","udp%3A%2F%2Fopen.demonii.com%3A1337","udp%3A%2F%2Ftracker.coppersurfer.tk%3A6969","udp%3A%2F%2Fexodus.desync.com%3A6969"],"infoHash":"822595211eda655739abe97a2f29767e0b1e03bc","infoHashBuffer":{"type":"Buffer","data":[130,37,149,33,30,218,101,87,57,171,233,122,47,41,118,126,11,30,3,188]},"announce":[],"urlList":[]}}